<svg preserveAspectRatio="none" overflow="visible" style="display: block;" width="18.6" height="18.4" viewBox="0 0 18.6 18.4" fill="none" xmlns="http://www.w3.org/2000/svg">
<path id="Vector" d="M15.3 0.3C14.9 -0.1 14.3 -0.1 13.9 0.3L9.6 4.6L5.3 0.3C4.9 -0.1 4.3 -0.1 3.9 0.3C3.5 0.7 3.5 1.3 3.9 1.7L8.2 6L0.3 13.9C0.1 14.1 0 14.3 0 14.6C0 14.9 0.1 15.1 0.3 15.3L3.1 18.1C3.3 18.3 3.6 18.4 3.8 18.4C4 18.4 4.3 18.3 4.5 18.1L12.4 10.2L16.7 14.5C16.9 14.7 17.2 14.8 17.4 14.8C17.6 14.8 17.9 14.7 18.1 14.5C18.5 14.1 18.5 13.5 18.1 13.1L14 11L18.3 6.7C18.7 6.3 18.7 5.7 18.3 5.3L15.3 0.3V0.3" fill="#10D070"/>
</svg>
